<mxfile host="app.diagrams.net" modified="2022-01-12T15:15:10.578Z" agent="5.0 (Windows NT 10.0; Win64; x64) AppleWebKit/537.36 (KHTML, like Gecko) Chrome/97.0.4692.71 Safari/537.36" etag="ZK3doch_GF5D3BBmFg8x" version="16.2.4" type="github">
  <diagram id="prtHgNgQTEPvFCAcTncT" name="Page-1">
    <mxGraphModel dx="2496" dy="1302" grid="1" gridSize="10" guides="1" tooltips="1" connect="1" arrows="1" fold="1" page="1" pageScale="1" pageWidth="827" pageHeight="1169" math="0" shadow="0">
      <root>
        <mxCell id="0" />
        <mxCell id="1" parent="0" />
        <mxCell id="g3FacJts447bwH2BUUsu-43" value="" style="shape=process;whiteSpace=wrap;html=1;backgroundOutline=1;rounded=1;gradientColor=#E6E6E6;fillColor=#FFFFFF;" parent="1" vertex="1">
          <mxGeometry x="74" y="9" width="600" height="230" as="geometry" />
        </mxCell>
        <mxCell id="g3FacJts447bwH2BUUsu-44" value="" style="ellipse;whiteSpace=wrap;html=1;aspect=fixed;fillColor=#b0e3e6;strokeColor=#0e8088;rounded=1;" parent="1" vertex="1">
          <mxGeometry x="153" y="84" width="80" height="80" as="geometry" />
        </mxCell>
        <mxCell id="g3FacJts447bwH2BUUsu-45" value="" style="ellipse;whiteSpace=wrap;html=1;aspect=fixed;fillColor=#d0cee2;strokeColor=#56517e;rounded=1;" parent="1" vertex="1">
          <mxGeometry x="272" y="84" width="80" height="80" as="geometry" />
        </mxCell>
        <mxCell id="g3FacJts447bwH2BUUsu-46" value="" style="ellipse;whiteSpace=wrap;html=1;aspect=fixed;fillColor=#bac8d3;strokeColor=#23445d;rounded=1;" parent="1" vertex="1">
          <mxGeometry x="513" y="84" width="80" height="80" as="geometry" />
        </mxCell>
        <mxCell id="g3FacJts447bwH2BUUsu-47" value="" style="ellipse;whiteSpace=wrap;html=1;aspect=fixed;fillColor=#fad7ac;strokeColor=#b46504;rounded=1;" parent="1" vertex="1">
          <mxGeometry x="392" y="84" width="80" height="80" as="geometry" />
        </mxCell>
        <mxCell id="g3FacJts447bwH2BUUsu-56" value="" style="shape=process;whiteSpace=wrap;html=1;backgroundOutline=1;rounded=1;gradientColor=#CCCCCC;fillColor=#E6E6E6;" parent="1" vertex="1">
          <mxGeometry x="74" y="239" width="600" height="230" as="geometry" />
        </mxCell>
        <mxCell id="g3FacJts447bwH2BUUsu-57" value="" style="ellipse;whiteSpace=wrap;html=1;aspect=fixed;fillColor=#b0e3e6;strokeColor=#0e8088;rounded=1;" parent="1" vertex="1">
          <mxGeometry x="153" y="319" width="80" height="80" as="geometry" />
        </mxCell>
        <mxCell id="g3FacJts447bwH2BUUsu-58" value="" style="ellipse;whiteSpace=wrap;html=1;aspect=fixed;fillColor=#d0cee2;strokeColor=#56517e;rounded=1;" parent="1" vertex="1">
          <mxGeometry x="274" y="319" width="80" height="80" as="geometry" />
        </mxCell>
        <mxCell id="g3FacJts447bwH2BUUsu-59" value="" style="ellipse;whiteSpace=wrap;html=1;aspect=fixed;fillColor=#bac8d3;strokeColor=#23445d;rounded=1;" parent="1" vertex="1">
          <mxGeometry x="514" y="319" width="80" height="80" as="geometry" />
        </mxCell>
        <mxCell id="g3FacJts447bwH2BUUsu-60" value="" style="ellipse;whiteSpace=wrap;html=1;aspect=fixed;fillColor=#fad7ac;strokeColor=#b46504;rounded=1;" parent="1" vertex="1">
          <mxGeometry x="394" y="319" width="80" height="80" as="geometry" />
        </mxCell>
        <mxCell id="g3FacJts447bwH2BUUsu-67" value="" style="shape=process;whiteSpace=wrap;html=1;backgroundOutline=1;rounded=1;fillColor=#CCCCCC;gradientColor=#B3B3B3;" parent="1" vertex="1">
          <mxGeometry x="74" y="469" width="600" height="230" as="geometry" />
        </mxCell>
        <mxCell id="g3FacJts447bwH2BUUsu-68" value="" style="ellipse;whiteSpace=wrap;html=1;aspect=fixed;fillColor=#b0e3e6;strokeColor=#0e8088;rounded=1;" parent="1" vertex="1">
          <mxGeometry x="154" y="549" width="80" height="80" as="geometry" />
        </mxCell>
        <mxCell id="g3FacJts447bwH2BUUsu-69" value="" style="ellipse;whiteSpace=wrap;html=1;aspect=fixed;fillColor=#d0cee2;strokeColor=#56517e;rounded=1;" parent="1" vertex="1">
          <mxGeometry x="274" y="549" width="80" height="80" as="geometry" />
        </mxCell>
        <mxCell id="g3FacJts447bwH2BUUsu-70" value="" style="ellipse;whiteSpace=wrap;html=1;aspect=fixed;fillColor=#bac8d3;strokeColor=#23445d;rounded=1;" parent="1" vertex="1">
          <mxGeometry x="514" y="549" width="80" height="80" as="geometry" />
        </mxCell>
        <mxCell id="g3FacJts447bwH2BUUsu-71" value="" style="ellipse;whiteSpace=wrap;html=1;aspect=fixed;fillColor=#fad7ac;strokeColor=#b46504;rounded=1;" parent="1" vertex="1">
          <mxGeometry x="394" y="549" width="80" height="80" as="geometry" />
        </mxCell>
        <mxCell id="g3FacJts447bwH2BUUsu-77" value="" style="shape=process;whiteSpace=wrap;html=1;backgroundOutline=1;fillColor=#B3B3B3;strokeColor=#666666;rounded=1;gradientColor=#999999;" parent="1" vertex="1">
          <mxGeometry x="74" y="699" width="600" height="230" as="geometry" />
        </mxCell>
        <mxCell id="g3FacJts447bwH2BUUsu-83" value="&lt;i style=&quot;font-size: 14px&quot;&gt;SACRIFICE &lt;b&gt;ANY&amp;nbsp;TWO &lt;/b&gt;CREATURES&lt;b&gt;&lt;br&gt;&lt;/b&gt;TO ADVANCE&amp;nbsp;&lt;b&gt;ONE CORRESPONDING PAWN&amp;nbsp;&lt;/b&gt;HERE&lt;/i&gt;" style="text;html=1;strokeColor=none;fillColor=none;align=center;verticalAlign=middle;whiteSpace=wrap;rounded=1;" parent="1" vertex="1">
          <mxGeometry x="133" y="708" width="480" height="30" as="geometry" />
        </mxCell>
        <mxCell id="g3FacJts447bwH2BUUsu-85" value="&lt;i&gt;exactly&lt;/i&gt;&lt;br&gt;1 PWR" style="text;html=1;strokeColor=none;fillColor=none;align=center;verticalAlign=middle;whiteSpace=wrap;rounded=1;" parent="1" vertex="1">
          <mxGeometry x="164" y="574" width="60" height="30" as="geometry" />
        </mxCell>
        <mxCell id="g3FacJts447bwH2BUUsu-86" value="1 PWR&lt;br&gt;&lt;i&gt;or&lt;/i&gt;&lt;br&gt;3 PWR" style="text;html=1;strokeColor=none;fillColor=none;align=center;verticalAlign=middle;whiteSpace=wrap;rounded=1;" parent="1" vertex="1">
          <mxGeometry x="284" y="574" width="60" height="30" as="geometry" />
        </mxCell>
        <mxCell id="g3FacJts447bwH2BUUsu-87" value="&lt;i&gt;at least&lt;/i&gt;&lt;br&gt;2 PWR" style="text;html=1;strokeColor=none;fillColor=none;align=center;verticalAlign=middle;whiteSpace=wrap;rounded=1;" parent="1" vertex="1">
          <mxGeometry x="404" y="574" width="60" height="30" as="geometry" />
        </mxCell>
        <mxCell id="g3FacJts447bwH2BUUsu-98" value="&lt;font style=&quot;font-size: 16px&quot;&gt;2&lt;/font&gt;" style="ellipse;whiteSpace=wrap;html=1;aspect=fixed;fillColor=#b0e3e6;strokeColor=#0e8088;rounded=1;" parent="1" vertex="1">
          <mxGeometry x="153" y="808" width="80" height="80" as="geometry" />
        </mxCell>
        <mxCell id="g3FacJts447bwH2BUUsu-99" value="&lt;font style=&quot;font-size: 16px&quot;&gt;2&lt;/font&gt;" style="ellipse;whiteSpace=wrap;html=1;aspect=fixed;fillColor=#d0cee2;strokeColor=#56517e;rounded=1;" parent="1" vertex="1">
          <mxGeometry x="273" y="808" width="80" height="80" as="geometry" />
        </mxCell>
        <mxCell id="g3FacJts447bwH2BUUsu-100" value="&lt;font style=&quot;font-size: 16px&quot;&gt;2&lt;/font&gt;" style="ellipse;whiteSpace=wrap;html=1;aspect=fixed;fillColor=#bac8d3;strokeColor=#23445d;rounded=1;" parent="1" vertex="1">
          <mxGeometry x="513" y="808" width="80" height="80" as="geometry" />
        </mxCell>
        <mxCell id="g3FacJts447bwH2BUUsu-101" value="&lt;font style=&quot;font-size: 16px&quot;&gt;2&lt;/font&gt;" style="ellipse;whiteSpace=wrap;html=1;aspect=fixed;fillColor=#fad7ac;strokeColor=#b46504;rounded=1;" parent="1" vertex="1">
          <mxGeometry x="393" y="808" width="80" height="80" as="geometry" />
        </mxCell>
        <mxCell id="g3FacJts447bwH2BUUsu-108" value="" style="shape=process;whiteSpace=wrap;html=1;backgroundOutline=1;rounded=1;fillColor=#999999;gradientColor=#808080;" parent="1" vertex="1">
          <mxGeometry x="74" y="929" width="600" height="230" as="geometry" />
        </mxCell>
        <mxCell id="g3FacJts447bwH2BUUsu-109" value="" style="ellipse;whiteSpace=wrap;html=1;aspect=fixed;fillColor=#b0e3e6;strokeColor=#0e8088;rounded=1;" parent="1" vertex="1">
          <mxGeometry x="154" y="1004" width="80" height="80" as="geometry" />
        </mxCell>
        <mxCell id="g3FacJts447bwH2BUUsu-110" value="" style="ellipse;whiteSpace=wrap;html=1;aspect=fixed;fillColor=#d0cee2;strokeColor=#56517e;rounded=1;" parent="1" vertex="1">
          <mxGeometry x="274" y="1004" width="80" height="80" as="geometry" />
        </mxCell>
        <mxCell id="g3FacJts447bwH2BUUsu-111" value="" style="ellipse;whiteSpace=wrap;html=1;aspect=fixed;fillColor=#bac8d3;strokeColor=#23445d;rounded=1;" parent="1" vertex="1">
          <mxGeometry x="514" y="1004" width="80" height="80" as="geometry" />
        </mxCell>
        <mxCell id="g3FacJts447bwH2BUUsu-112" value="&lt;i&gt;exactly&lt;/i&gt;&lt;br&gt;1 PWR" style="ellipse;whiteSpace=wrap;html=1;aspect=fixed;fillColor=#fad7ac;strokeColor=#b46504;rounded=1;" parent="1" vertex="1">
          <mxGeometry x="394" y="1004" width="80" height="80" as="geometry" />
        </mxCell>
        <mxCell id="g3FacJts447bwH2BUUsu-116" value="&lt;i&gt;at least&lt;/i&gt;&lt;br&gt;3 PWR" style="text;html=1;strokeColor=none;fillColor=none;align=center;verticalAlign=middle;whiteSpace=wrap;rounded=1;" parent="1" vertex="1">
          <mxGeometry x="524" y="1029" width="60" height="30" as="geometry" />
        </mxCell>
        <mxCell id="g3FacJts447bwH2BUUsu-119" value="&lt;i style=&quot;font-size: 14px&quot;&gt;SACRIFICE &lt;b&gt;ONE&lt;/b&gt; CREATURE TO ADVANCE HERE&lt;/i&gt;" style="text;html=1;strokeColor=none;fillColor=none;align=center;verticalAlign=middle;whiteSpace=wrap;rounded=1;" parent="1" vertex="1">
          <mxGeometry x="134" y="259" width="480" height="30" as="geometry" />
        </mxCell>
        <mxCell id="xXZptcnk_brkqJqVmBfV-1" value="&lt;font style=&quot;font-size: 14px&quot;&gt;1&lt;/font&gt;" style="ellipse;whiteSpace=wrap;html=1;aspect=fixed;fontSize=16;" parent="1" vertex="1">
          <mxGeometry x="173" y="768" width="40" height="40" as="geometry" />
        </mxCell>
        <mxCell id="xXZptcnk_brkqJqVmBfV-11" value="&lt;font style=&quot;font-size: 14px&quot;&gt;1&lt;/font&gt;" style="ellipse;whiteSpace=wrap;html=1;aspect=fixed;fontSize=16;" parent="1" vertex="1">
          <mxGeometry x="292" y="768" width="40" height="40" as="geometry" />
        </mxCell>
        <mxCell id="xXZptcnk_brkqJqVmBfV-13" value="&lt;font style=&quot;font-size: 14px&quot;&gt;1&lt;/font&gt;" style="ellipse;whiteSpace=wrap;html=1;aspect=fixed;fontSize=16;" parent="1" vertex="1">
          <mxGeometry x="412" y="768" width="40" height="40" as="geometry" />
        </mxCell>
        <mxCell id="xXZptcnk_brkqJqVmBfV-15" value="&lt;font style=&quot;font-size: 14px&quot;&gt;1&lt;/font&gt;" style="ellipse;whiteSpace=wrap;html=1;aspect=fixed;fontSize=16;" parent="1" vertex="1">
          <mxGeometry x="533" y="768" width="40" height="40" as="geometry" />
        </mxCell>
        <mxCell id="xXZptcnk_brkqJqVmBfV-31" value="1 PWR&lt;br&gt;&lt;i&gt;or&lt;/i&gt;&lt;br&gt;3 PWR" style="text;html=1;strokeColor=none;fillColor=none;align=center;verticalAlign=middle;whiteSpace=wrap;rounded=1;" parent="1" vertex="1">
          <mxGeometry x="524" y="574" width="60" height="30" as="geometry" />
        </mxCell>
        <mxCell id="xXZptcnk_brkqJqVmBfV-32" value="&amp;nbsp;Pawns that reach this field subsequently start here" style="text;html=1;strokeColor=none;fillColor=none;align=left;verticalAlign=middle;whiteSpace=wrap;rounded=0;fontSize=12;" parent="1" vertex="1">
          <mxGeometry x="134" y="1109" width="480" height="30" as="geometry" />
        </mxCell>
        <mxCell id="xXZptcnk_brkqJqVmBfV-34" value="&lt;i&gt;at least&lt;/i&gt;&lt;br&gt;2 PWR" style="text;html=1;strokeColor=none;fillColor=none;align=center;verticalAlign=middle;whiteSpace=wrap;rounded=1;" parent="1" vertex="1">
          <mxGeometry x="164" y="1029" width="60" height="30" as="geometry" />
        </mxCell>
        <mxCell id="xXZptcnk_brkqJqVmBfV-35" value="&lt;i style=&quot;font-size: 14px&quot;&gt;SACRIFICE &lt;b&gt;ONE&lt;/b&gt; CREATURE TO ADVANCE HERE&lt;/i&gt;" style="text;html=1;strokeColor=none;fillColor=none;align=center;verticalAlign=middle;whiteSpace=wrap;rounded=1;" parent="1" vertex="1">
          <mxGeometry x="133.5" y="936" width="480" height="30" as="geometry" />
        </mxCell>
        <mxCell id="xXZptcnk_brkqJqVmBfV-36" value="&lt;i&gt;exactly&lt;/i&gt;&lt;br&gt;2 PWR" style="text;html=1;strokeColor=none;fillColor=none;align=center;verticalAlign=middle;whiteSpace=wrap;rounded=1;" parent="1" vertex="1">
          <mxGeometry x="284" y="1029" width="60" height="30" as="geometry" />
        </mxCell>
        <mxCell id="xXZptcnk_brkqJqVmBfV-41" value="While a Pawn is present here, the Witcher has access to Rare Treasures&amp;nbsp;" style="text;html=1;strokeColor=none;fillColor=none;align=right;verticalAlign=middle;whiteSpace=wrap;rounded=0;fontSize=12;fontColor=#FFFFFF;" parent="1" vertex="1">
          <mxGeometry x="134" y="1129" width="480" height="30" as="geometry" />
        </mxCell>
        <mxCell id="xXZptcnk_brkqJqVmBfV-42" value="&lt;span style=&quot;font-size: 36px&quot;&gt;0&lt;/span&gt;" style="text;html=1;strokeColor=none;fillColor=none;align=center;verticalAlign=middle;whiteSpace=wrap;rounded=0;fontSize=12;" parent="1" vertex="1">
          <mxGeometry x="614" y="109" width="60" height="30" as="geometry" />
        </mxCell>
        <mxCell id="xXZptcnk_brkqJqVmBfV-43" value="&lt;span style=&quot;font-size: 36px&quot;&gt;1&lt;/span&gt;" style="text;html=1;strokeColor=none;fillColor=none;align=center;verticalAlign=middle;whiteSpace=wrap;rounded=0;fontSize=12;" parent="1" vertex="1">
          <mxGeometry x="614" y="344" width="60" height="30" as="geometry" />
        </mxCell>
        <mxCell id="xXZptcnk_brkqJqVmBfV-44" value="&lt;span style=&quot;font-size: 36px&quot;&gt;2&lt;/span&gt;" style="text;html=1;strokeColor=none;fillColor=none;align=center;verticalAlign=middle;whiteSpace=wrap;rounded=0;fontSize=12;" parent="1" vertex="1">
          <mxGeometry x="614" y="574" width="60" height="30" as="geometry" />
        </mxCell>
        <mxCell id="xXZptcnk_brkqJqVmBfV-45" value="&lt;span style=&quot;font-size: 36px&quot;&gt;3&lt;/span&gt;" style="text;html=1;strokeColor=none;fillColor=none;align=center;verticalAlign=middle;whiteSpace=wrap;rounded=0;fontSize=12;" parent="1" vertex="1">
          <mxGeometry x="614" y="799" width="60" height="30" as="geometry" />
        </mxCell>
        <mxCell id="xXZptcnk_brkqJqVmBfV-46" value="&lt;span style=&quot;font-size: 36px&quot;&gt;4&lt;/span&gt;" style="text;html=1;strokeColor=none;fillColor=none;align=center;verticalAlign=middle;whiteSpace=wrap;rounded=0;fontSize=12;" parent="1" vertex="1">
          <mxGeometry x="614" y="1029" width="60" height="30" as="geometry" />
        </mxCell>
        <mxCell id="xXZptcnk_brkqJqVmBfV-121" value="&lt;font style=&quot;font-size: 16px&quot;&gt;THREAT GROWS&lt;br&gt;&lt;/font&gt;" style="text;html=1;strokeColor=none;fillColor=none;align=center;verticalAlign=middle;whiteSpace=wrap;horizontal=0;fontStyle=1;rounded=0;fontColor=#99004D;" parent="1" vertex="1">
          <mxGeometry x="74" y="769" width="60" height="160" as="geometry" />
        </mxCell>
        <mxCell id="xXZptcnk_brkqJqVmBfV-122" value="&lt;font color=&quot;#99004d&quot;&gt;+1&lt;/font&gt;" style="ellipse;whiteSpace=wrap;html=1;aspect=fixed;labelBackgroundColor=none;labelBorderColor=none;fontSize=36;fontColor=#000000;fillColor=#e8e8e8;gradientColor=none;verticalAlign=middle;horizontal=0;" parent="1" vertex="1">
          <mxGeometry x="63" y="699" width="80" height="80" as="geometry" />
        </mxCell>
        <mxCell id="xXZptcnk_brkqJqVmBfV-130" value="&lt;font&gt;II&lt;/font&gt;" style="whiteSpace=wrap;html=1;aspect=fixed;labelBackgroundColor=none;labelBorderColor=none;fontSize=36;fontColor=#000000;fillColor=#cccccc;gradientColor=none;verticalAlign=middle;horizontal=0;" parent="1" vertex="1">
          <mxGeometry x="74" y="929" width="60" height="60" as="geometry" />
        </mxCell>
        <mxCell id="xXZptcnk_brkqJqVmBfV-131" value="&lt;span style=&quot;font-size: 16px&quot;&gt;START POSITION&lt;/span&gt;" style="text;html=1;strokeColor=none;fillColor=none;align=center;verticalAlign=middle;whiteSpace=wrap;horizontal=0;fontStyle=1;rounded=0;fontColor=#000000;labelBackgroundColor=none;labelBorderColor=none;" parent="1" vertex="1">
          <mxGeometry x="74" y="69" width="60" height="170" as="geometry" />
        </mxCell>
        <mxCell id="xXZptcnk_brkqJqVmBfV-132" value="&lt;font&gt;I&lt;/font&gt;" style="whiteSpace=wrap;html=1;aspect=fixed;labelBackgroundColor=none;labelBorderColor=none;fontSize=36;fontColor=#000000;fillColor=#FFFFFF;gradientColor=none;verticalAlign=middle;horizontal=0;" parent="1" vertex="1">
          <mxGeometry x="74" y="9" width="60" height="60" as="geometry" />
        </mxCell>
        <mxCell id="xXZptcnk_brkqJqVmBfV-172" value="&lt;span style=&quot;font-size: 16px&quot;&gt;END POSITION&lt;/span&gt;" style="text;html=1;strokeColor=none;fillColor=none;align=center;verticalAlign=middle;whiteSpace=wrap;horizontal=0;fontStyle=1;rounded=0;fontColor=#000000;labelBackgroundColor=none;labelBorderColor=none;" parent="1" vertex="1">
          <mxGeometry x="74" y="989" width="60" height="170" as="geometry" />
        </mxCell>
        <mxCell id="xXZptcnk_brkqJqVmBfV-174" value="&lt;i style=&quot;font-size: 14px&quot;&gt;SACRIFICE &lt;b&gt;ONE&lt;/b&gt; CREATURE TO ADVANCE HERE&lt;/i&gt;" style="text;html=1;strokeColor=none;fillColor=none;align=center;verticalAlign=middle;whiteSpace=wrap;rounded=1;" parent="1" vertex="1">
          <mxGeometry x="134" y="489" width="480" height="30" as="geometry" />
        </mxCell>
      </root>
    </mxGraphModel>
  </diagram>
</mxfile>
